<?xml version="1.0" standalone="no"?>
<!DOCTYPE svg PUBLIC "-//W3C//DTD SVG 20010904//EN"
 "http://www.w3.org/TR/2001/REC-SVG-20010904/DTD/svg10.dtd">
<svg version="1.0" xmlns="http://www.w3.org/2000/svg"
 width="400.000000pt" height="400.000000pt" viewBox="0 0 400.000000 400.000000"
 preserveAspectRatio="xMidYMid meet">

<g transform="translate(0.000000,400.000000) scale(0.100000,-0.100000)"
fill="#000000" stroke="none">
<path d="M1795 3981 c-696 -81 -1277 -487 -1581 -1106 -78 -159 -135 -331
-171 -513 -23 -122 -26 -160 -27 -357 0 -187 4 -238 23 -340 89 -475 305 -854
667 -1170 125 -111 251 -193 419 -275 161 -79 301 -127 482 -167 121 -26 142
-27 388 -27 244 0 268 1 385 27 534 114 967 403 1262 842 416 616 450 1434 87
2075 -297 527 -804 886 -1396 990 -132 23 -420 34 -538 21z m468 -700 c137
-33 210 -59 320 -115 314 -159 558 -445 661 -775 30 -94 60 -256 52 -277 -3
-8 -20 -14 -41 -14 -40 0 -38 -3 -80 130 -48 150 -97 220 -189 268 -43 22 -67
27 -156 30 -103 4 -107 3 -137 -22 -18 -15 -50 -66 -77 -122 -26 -53 -74 -139
-108 -191 l-61 -95 -116 5 c-64 3 -192 19 -286 36 -157 27 -172 29 -201 15
-18 -9 -40 -24 -50 -35 -17 -19 -44 -26 -44 -11 0 4 16 23 35 42 41 40 42 50
15 180 -11 52 -25 156 -32 229 -10 110 -16 139 -33 158 -44 51 -357 111 -443
85 -55 -17 -124 -82 -231 -217 -154 -192 -145 -170 -131 -336 7 -77 9 -143 6
-146 -16 -16 -27 23 -39 147 -13 118 -17 136 -37 152 -14 12 -35 18 -53 16
-28 -3 -31 -8 -49 -73 -11 -38 -25 -108 -32 -155 -9 -62 -16 -85 -27 -85 -19
0 -15 72 11 181 83 356 302 654 617 841 150 89 335 152 513 176 85 12 336 -1
423 -22z m-1277 -1228 c22 -12 47 -29 55 -39 13 -16 12 -17 -16 -9 -16 4 -117
10 -222 12 l-193 5 0 -286 c0 -279 0 -286 -20 -286 -20 0 -20 7 -20 308 0 170
3 312 8 316 4 5 88 6 187 4 159 -4 185 -7 221 -25z m559 -3 l0 -25 -182 -3
-183 -2 0 -285 0 -285 -25 0 -25 0 0 308 c0 170 3 312 7 316 4 3 97 5 207 4
l201 -3 0 -25z m513 -2 l3 -28 -225 0 -226 0 7 -60 c5 -56 4 -60 -14 -60 -18
0 -21 8 -25 83 -3 45 -3 85 -1 90 2 4 111 6 241 5 l237 -3 3 -27z m530 0 l3
-28 -225 0 -226 0 2 -57 c2 -46 0 -58 -13 -61 -20 -4 -29 34 -29 119 l0 59
243 -2 242 -3 3 -27z m283 22 c6 -46 8 -45 -83 -48 l-88 -3 0 -284 c0 -278 0
-285 -20 -285 -20 0 -20 7 -20 308 0 170 3 312 7 315 11 11 203 8 204 -3z
m499 -20 l0 -30 -185 0 -185 0 0 -285 c0 -278 0 -285 -20 -285 -20 0 -20 7
-20 308 0 170 3 312 7 315 3 4 96 7 205 7 l198 0 0 -30z m-2480 -228 c0 -42
-14 -62 -42 -62 -27 0 -34 28 -14 60 9 16 16 35 16 44 0 14 4 15 20 6 15 -8
20 -21 20 -48z m930 19 c0 -4 -40 -80 -90 -169 -58 -104 -90 -172 -90 -192 0
-23 -4 -30 -20 -30 -18 0 -20 7 -20 60 0 56 5 69 71 187 39 71 80 135 90 145
18 15 59 14 59 -1z m530 3 c0 -5 -109 -207 -154 -284 -14 -25 -26 -60 -26 -77
0 -26 -4 -33 -19 -33 -15 0 -20 10 -25 51 -7 50 -5 55 55 163 35 61 72 128 83
148 20 35 45 49 74 40 6 -2 12 -6 12 -8z m-842 -36 c3 -28 3 -28 -57 -28 -57
0 -61 1 -61 23 0 34 8 38 65 35 46 -3 50 -5 53 -30z m1827 12 c10 -32 -3 -40
-61 -40 -39 0 -56 4 -60 15 -13 33 4 45 60 45 46 0 56 -3 61 -20z m-2447 -182
c18 -18 15 -84 -4 -103 -36 -36 -85 5 -51 43 9 9 19 29 22 45 8 30 15 33 33
15z m657 -58 c0 -24 -2 -25 -77 -28 -76 -3 -78 -2 -78 21 0 35 7 38 85 35 67
-3 70 -4 70 -28z m533 8 c-3 -21 -9 -23 -75 -26 -56 -2 -73 0 -73 11 0 26 25
37 88 37 60 0 63 -1 60 -22z m527 -3 c0 -18 -8 -20 -72 -23 -73 -3 -79 0 -67
33 5 13 19 15 73 13 58 -3 66 -5 66 -23z m760 -5 c0 -24 -3 -25 -73 -28 -75
-3 -92 6 -78 43 5 13 20 15 78 13 70 -3 73 -4 73 -28z m-2487 -301 l18 -42 16
42 c23 57 53 57 63 1 8 -50 -3 -122 -18 -117 -7 2 -14 19 -17 38 -5 33 -6 33
-18 12 -17 -31 -38 -29 -56 5 l-15 27 -1 -42 c0 -30 -4 -43 -14 -43 -19 0 -26
22 -26 84 0 84 39 104 68 35z m267 -40 c0 -59 -3 -74 -15 -74 -11 0 -16 15
-18 64 -3 71 2 95 21 88 8 -2 12 -27 12 -78z m179 75 c8 -3 21 -22 28 -42 l13
-37 5 40 c3 27 10 40 20 40 23 0 28 -143 5 -151 -19 -8 -44 12 -58 46 -10 25
-10 25 -16 -10 -4 -22 -12 -35 -21 -35 -11 0 -16 15 -18 64 -4 88 2 100 42 85z
m254 -69 c3 -68 -10 -104 -27 -77 -10 16 -14 129 -6 143 16 26 30 -2 33 -66z
m382 60 c19 -23 -3 -44 -25 -25 -34 28 -25 -1 10 -34 35 -34 37 -37 23 -58 -9
-13 -25 -24 -36 -26 -27 -4 -62 15 -62 34 0 12 8 14 38 9 l37 -6 -37 31 c-39
33 -47 57 -26 78 17 17 63 15 78 -3z m241 -4 c48 -39 21 -141 -38 -141 -36 0
-63 34 -63 80 0 69 52 101 101 61z m243 13 c9 -3 16 -15 16 -25 0 -15 -6 -19
-32 -17 -30 3 -33 0 -36 -30 -4 -37 18 -53 44 -32 25 22 42 -4 19 -30 -41 -46
-105 -9 -105 60 0 61 42 94 94 74z m252 -8 c24 -18 12 -31 -29 -31 -29 0 -32
-3 -35 -33 -4 -37 15 -50 47 -33 28 15 38 -5 15 -30 -40 -44 -104 -8 -104 59
0 67 57 103 106 68z m241 -3 c3 -7 -9 -13 -29 -15 -37 -3 -45 -21 -10 -26 27
-4 30 -32 2 -32 -31 0 -24 -28 8 -32 16 -2 27 -9 27 -18 0 -11 -12 -15 -45
-15 l-45 0 -3 64 c-2 35 -1 70 2 78 7 17 87 14 93 -4z m217 8 c23 -9 24 -14
23 -80 -1 -39 -6 -71 -10 -71 -4 0 -16 13 -25 30 -19 34 -35 35 -37 2 -2 -27
-10 -36 -24 -27 -12 7 -15 137 -4 148 9 10 48 9 77 -2z"/>
<path d="M1744 3250 c-119 -24 -231 -62 -323 -109 l-75 -38 -12 -59 c-7 -32
-17 -72 -23 -87 -6 -16 -11 -48 -11 -71 l0 -43 114 -6 c78 -5 140 -15 197 -33
46 -14 101 -31 122 -37 35 -10 42 -9 85 16 71 42 162 83 264 118 116 39 164
64 178 88 15 29 12 156 -5 196 -10 26 -26 41 -62 57 -68 31 -316 36 -449 8z"/>
<path d="M2313 3194 c-9 -4 -13 -38 -13 -119 l0 -113 53 -43 c94 -79 118 -103
214 -222 53 -65 105 -122 117 -126 11 -5 71 -11 131 -14 92 -5 123 -11 185
-36 41 -17 77 -31 79 -31 2 0 1 36 -2 81 -7 113 -44 183 -155 301 -129 135
-281 241 -426 296 -59 23 -160 37 -183 26z"/>
<path d="M2135 1261 c-10 -34 4 -63 28 -59 18 2 22 10 22 38 0 28 -4 36 -22
38 -14 2 -23 -3 -28 -17z"/>
<path d="M3113 1283 c-21 -7 -15 -33 7 -33 11 0 20 6 20 14 0 18 -11 25 -27
19z"/>
</g>
</svg>
